<?xml version="1.0" encoding="UTF-8" standalone="no"?><!DOCTYPE svg PUBLIC "-//W3C//DTD SVG 1.1//EN" "http://www.w3.org/Graphics/SVG/1.1/DTD/svg11.dtd"><svg width="100%" height="100%" viewBox="0 0 7917 7917" version="1.1" xmlns="http://www.w3.org/2000/svg" xmlns:xlink="http://www.w3.org/1999/xlink" xml:space="preserve" xmlns:serif="http://www.serif.com/" style="fill-rule:evenodd;clip-rule:evenodd;stroke-linejoin:round;stroke-miterlimit:2;"><path d="M7546.067,312.5l-5347.342,0c-184.542,0 -334.142,149.6 -334.142,334.142l0,1488.775l3098.958,911.458l2916.667,-911.458l0,-1488.775c0,-184.542 -149.6,-334.142 -334.142,-334.142Z" style="fill:#41a5ee;fill-rule:nonzero;"/><path d="M7880.208,2135.417l-6015.625,0l-0,1822.917l3098.958,546.875l2916.667,-546.875l0,-1822.917Z" style="fill:#2b7cd3;fill-rule:nonzero;"/><path d="M1864.583,3958.333l0,1822.917l2916.667,364.583l3098.958,-364.583l0,-1822.917l-6015.625,0Z" style="fill:#185abd;fill-rule:nonzero;"/><path d="M2198.725,7604.167l5347.346,0c184.542,0 334.142,-149.6 334.142,-334.142l0,-1488.775l-6015.629,0l0,1488.775c0,184.542 149.6,334.142 334.142,334.142Z" style="fill:#103f91;fill-rule:nonzero;"/><path d="M4082.525,1770.833l-2217.942,0l0,4557.292l2217.942,0c184.292,-0.6 333.542,-149.85 334.142,-334.142l0,-3889.008c-0.6,-184.292 -149.85,-333.542 -334.142,-334.142Z" style="fill-opacity:0.1;fill-rule:nonzero;"/><path d="M3900.233,1953.125l-2035.65,0l0,4557.292l2035.65,0c184.292,-0.6 333.542,-149.85 334.142,-334.142l0,-3889.008c-0.6,-184.292 -149.85,-333.542 -334.142,-334.142Z" style="fill-opacity:0.2;fill-rule:nonzero;"/><path d="M3900.233,1953.125l-2035.65,0l0,4192.708l2035.65,0c184.292,-0.6 333.542,-149.85 334.142,-334.142l0,-3524.425c-0.6,-184.292 -149.85,-333.542 -334.142,-334.142Z" style="fill-opacity:0.2;fill-rule:nonzero;"/><path d="M3717.942,1953.125l-1853.358,0l0,4192.708l1853.358,0c184.292,-0.6 333.542,-149.85 334.142,-334.142l0,-3524.425c-0.6,-184.292 -149.85,-333.542 -334.142,-334.142Z" style="fill-opacity:0.2;fill-rule:nonzero;"/><path d="M375.808,1953.125l3342.133,0c184.542,0 334.142,149.6 334.142,334.142l0,3342.138c0,184.542 -149.6,334.142 -334.142,334.142l-3342.133,0c-184.542,0 -334.142,-149.6 -334.142,-334.142l-0,-3342.138c0,-184.542 149.6,-334.142 334.142,-334.142Z" style="fill:url(#_Linear1);fill-rule:nonzero;"/><path d="M2682.708,3400.158c-6.562,-51.587 -10.938,-96.433 -12.942,-134.896l-7.654,0c-2.917,36.458 -8.992,80.392 -18.229,131.796c-9.238,51.408 -17.562,94.854 -24.975,130.338l-351.458,1516.304l-454.454,-0l-364.583,-1493.517c-21.183,-92.867 -36.346,-187.004 -45.392,-281.821l-6.017,0c-6.796,91.863 -19.463,183.192 -37.917,273.437l-290.754,1502.629l-413.621,0l510.783,-2172.917l483.254,0l346.354,1439.012c10.025,41.379 21.508,95.521 34.087,162.058c12.579,66.538 20.417,115.208 23.517,145.833l6.017,0c4.008,-35.363 11.85,-87.867 23.517,-157.5c11.667,-69.638 21.025,-121.163 28.075,-154.583l325.575,-1434.454l491.458,0l513.512,2171.825l-421.092,0l-316.642,-1519.4c-7.113,-31.175 -13.858,-72.738 -20.421,-124.146Z" style="fill:#fff;fill-rule:nonzero;"/><defs><linearGradient id="_Linear1" x1="0" y1="0" x2="1" y2="0" gradientUnits="userSpaceOnUse" gradientTransform="matrix(2617.035833,4532.5975,-4532.5975,2617.035833,738.357083,1692.034583)"><stop offset="0" style="stop-color:#2368c4;stop-opacity:1"/><stop offset="0.5" style="stop-color:#1a5dbe;stop-opacity:1"/><stop offset="1" style="stop-color:#1146ac;stop-opacity:1"/></linearGradient></defs></svg>